<svg xmlns="http://www.w3.org/2000/svg" xmlns:xlink="http://www.w3.org/1999/xlink" width="764" height="257" viewBox="0 0 764 257">
  <defs>
    <clipPath id="clip-Logo">
      <rect width="764" height="257"/>
    </clipPath>
  </defs>
  <g id="Logo" clip-path="url(#clip-Logo)">
    <path id="Icon_awesome-pen-fancy" data-name="Icon awesome-pen-fancy" d="M18.178,64.956A7.347,7.347,0,0,0,13.531,69.6L0,110.2l1.077,1.077L22.4,89.947a7.066,7.066,0,0,1-.36-1.791A7.346,7.346,0,1,1,29.388,95.5a7.066,7.066,0,0,1-1.791-.36L6.272,116.468l1.074,1.074L47.94,104.011a7.342,7.342,0,0,0,4.647-4.647l7.592-19.3-22.7-22.7ZM84.77,6.5,42.733,52.3,65.2,74.763l45.8-42.037C130.49,15.492,101.869-12.842,84.77,6.5Z" transform="translate(266.728 94.375) rotate(90)" fill="#095fab"/>
    <path id="Icon_awesome-brain" data-name="Icon awesome-brain" d="M47.751,0A14.649,14.649,0,0,0,33.564,11.065c-.184,0-.321-.046-.505-.046A14.706,14.706,0,0,0,18.366,25.712a13.539,13.539,0,0,0,.39,3.214,18.207,18.207,0,0,0-9.5,25,18.3,18.3,0,0,0,2.089,32.829,16.823,16.823,0,0,0-.321,3.237,16.519,16.519,0,0,0,16.529,16.529,15.566,15.566,0,0,0,2.755-.275,16.49,16.49,0,0,0,32.14-5.234V14.693A14.706,14.706,0,0,0,47.751,0Zm84.483,69.79a18.27,18.27,0,0,0-9.252-15.864,18.069,18.069,0,0,0,1.905-8.012,18.366,18.366,0,0,0-11.41-16.988,14.557,14.557,0,0,0-14.3-17.907c-.184,0-.344.046-.505.046a14.664,14.664,0,0,0-28.88,3.627v86.32a16.49,16.49,0,0,0,32.14,5.234,15.566,15.566,0,0,0,2.755.275,16.519,16.519,0,0,0,16.529-16.529,16.823,16.823,0,0,0-.321-3.237A18.366,18.366,0,0,0,132.234,69.79Z" transform="translate(149.185 28.258) rotate(90)" fill="#ef8686"/>
    <text id="Finetune" transform="translate(338 155.742)" fill="#06345d" font-size="96" font-family="Quicksand"><tspan x="0" y="0">Finetune</tspan></text>
  </g>
</svg>
